#!OML:ASF E:\motion texture\Top Level 1\Subject 1\Session 1\male.ASF
:FULLY-SPECIFIED
:DEGREES
143
root 11.9003 17.9176 5.71982 118.482 -87.1715 -113.223
lowerback -0.662305 -0.279303 0.64404
upperback -0.770214 -0.38832 2.00912
thorax -0.407442 -0.200118 1.69521
lowerneck -11.5948 -4.40503 -5.37371
upperneck 24.4221 -5.96736 1.68487
head 9.86951 -3.2554 0.747165
rclavicle 0 5.96354e-016
rhumerus -22.3447 -7.37168 -73.5991
rradius 27.7317
rwrist 14.7798
rhand -14.7487 -24.0184
rfingers 7.12502
rthumb 11.4071 -53.6881
lclavicle 0 5.96354e-016
lhumerus -30.2648 10.6326 83.7825
lradius 27.6155
lwrist -27.8698
lhand -10.2046 19.4133
lfingers 7.12502
lthumb 15.7867 48.7896
rfemur -26.9546 -6.72172 21.5326
rtibia 65.0201
rfoot -1.65903 -17.9274
rtoes 6.18174
lfemur -10.3784 -1.95446 -19.7163
ltibia 17.4911
lfoot -8.44308 2.39696
ltoes 0.580874
144
root 11.763 17.9235 5.72373 114.447 -87.389 -109.166
lowerback -0.622253 -0.368067 0.496023
upperback -0.777711 -0.505192 2.03838
thorax -0.43316 -0.257663 1.80831
lowerneck -11.5898 -4.42631 -5.4025
upperneck 24.3366 -5.98292 1.67834
head 9.83955 -3.26394 0.748898
rclavicle -2.5842e-015 -4.37326e-015
rhumerus -23.0654 -9.39147 -72.6906
rradius 26.3735
rwrist 15.2358
rhand -14.9796 -24.6516
rfingers 7.12502
rthumb 11.1844 -54.3335
lclavicle -2.5842e-015 -4.37326e-015
lhumerus -30.5403 11.3028 83.0413
lradius 27.3069
lwrist -28.0616
lhand -10.2941 19.3729
lfingers 7.12502
lthumb 15.7004 48.756
rfemur -27.8329 -6.84618 21.4172
rtibia 64.347
rfoot -2.54404 -17.9622
rtoes 5.85993
lfemur -9.72533 -2.0053 -19.9252
ltibia 17.1743
lfoot -8.66918 2.21602
ltoes 0.411355
145
root 11.6271 17.9281 5.72679 109.496 -87.5939 -104.186
lowerback -0.573391 -0.456165 0.346749
upperback -0.790272 -0.621079 2.06635
thorax -0.468327 -0.31462 1.92107
lowerneck -11.564 -4.4521 -5.42851
upperneck 24.2367 -6.00731 1.67602
head 9.80088 -3.27595 0.751216
rclavicle 2.95692e-015 1.70955e-014
rhumerus -23.8297 -11.6032 -71.6522
rradius 25.0154
rwrist 15.8156
rhand -15.1905 -25.2517
rfingers 7.12502
rthumb 10.981 -54.9445
lclavicle 2.95692e-015 1.70955e-014
lhumerus -30.8349 11.9569 82.2888
lradius 27.0336
lwrist -28.2231
lhand -10.3723 19.3607
lfingers 7.12502
lthumb 15.6251 48.7496
rfemur -28.6776 -6.97076 21.298
rtibia 63.5519
rfoot -3.36151 -18.0868
rtoes 5.65826
lfemur -9.1074 -2.05336 -20.1267
ltibia 16.8952
lfoot -8.90134 2.03407
ltoes 0.214183
146
root 11.492 17.9315 5.7293 103.743 -87.7758 -98.4023
lowerback -0.51905 -0.543247 0.201109
upperback -0.792944 -0.735868 2.09562
thorax -0.495807 -0.371035 2.03331
lowerneck -11.553 -4.48242 -5.46268
upperneck 24.1289 -6.03611 1.68091
head 9.76306 -3.28938 0.756595
rclavicle 1.2921e-015 -7.95139e-015
rhumerus -24.6291 -14.008 -70.4711
rradius 23.6683
rwrist 16.5406
rhand -15.4498 -25.7782
rfingers 7.12502
rthumb 10.7309 -55.4841
lclavicle 1.2921e-015 -7.95139e-015
lhumerus -31.1235 12.611 81.5319
lradius 26.7883
lwrist -28.3607
lhand -10.4209 19.406
lfingers 7.12502
lthumb 15.5783 48.7987
rfemur -29.4783 -7.08918 21.173
rtibia 62.6384
rfoot -4.12704 -18.2675
rtoes 5.4882
lfemur -8.50962 -2.09719 -20.3214
ltibia 16.6448
lfoot -9.1381 1.86025
ltoes 0.00184342
147
root 11.358 17.934 5.73096 97.0104 -87.9281 -91.6348
lowerback -0.457754 -0.628936 0.057654
upperback -0.791382 -0.848965 2.1268
thorax -0.522232 -0.426598 2.14654
lowerneck -11.5439 -4.51815 -5.50536
upperneck 24.0089 -6.07195 1.69529
head 9.72223 -3.30543 0.76591
rclavicle -5.2181e-015 3.57812e-015
rhumerus -25.4919 -16.6097 -69.1223
rradius 22.343
rwrist 17.4471
rhand -15.7476 -26.2485
rfingers 7.12502
rthumb 10.4436 -55.9691
lclavicle -5.2181e-015 3.57812e-015
lhumerus -31.3891 13.3134 80.7569
lradius 26.5302
lwrist -28.5306
lhand -10.4424 19.482
lfingers 7.12502
lthumb 15.5576 48.8762
rfemur -30.2369 -7.20172 21.0459
rtibia 61.6085
rfoot -4.83903 -18.4926
rtoes 5.32125
lfemur -7.94137 -2.1395 -20.5052
ltibia 16.4272
lfoot -9.37914 1.69467
ltoes -0.201749
148
root 11.2251 17.9353 5.73194 89.341 -88.0459 -83.9218
lowerback -0.395506 -0.711143 -0.0813301
upperback -0.789952 -0.957601 2.15678
thorax -0.548922 -0.479922 2.25623
lowerneck -11.5185 -4.55931 -5.55541
upperneck 23.8739 -6.1173 1.72233
head 9.67417 -3.32515 0.780213
rclavicle 3.08116e-015 -1.70955e-014
rhumerus -26.4619 -19.3775 -67.5893
rradius 21.0677
rwrist 18.5327
rhand -16.0484 -26.7229
rfingers 7.12502
rthumb 10.1535 -56.4579
lclavicle 3.08116e-015 -1.70955e-014
lhumerus -31.6678 14.0041 79.9752
lradius 26.3095
lwrist -28.6583
lhand -10.4213 19.6311
lfingers 7.12502
lthumb 15.5779 49.0237
rfemur -30.9553 -7.3086 20.9143
rtibia 60.4654
rfoot -5.48521 -18.7487
rtoes 5.18171
lfemur -7.40826 -2.17477 -20.6817
ltibia 16.2461
lfoot -9.62712 1.53752
ltoes -0.359238
149
root 11.0929 17.9358 5.73222 80.9739 -88.1207 -75.5026
lowerback -0.329604 -0.791842 -0.213579
upperback -0.784047 -1.06447 2.18879
thorax -0.57261 -0.532416 2.36445
lowerneck -11.5069 -4.60412 -5.61699
upperneck 23.7346 -6.16656 1.76088
head 9.6283 -3.346 0.799625
rclavicle -2.11209e-015 3.57812e-015
rhumerus -27.5529 -22.2856 -65.8541
rradius 19.856
rwrist 19.8318
rhand -16.3204 -27.2407
rfingers 7.12502
rthumb 9.89101 -56.9883
lclavicle -2.11209e-015 3.57812e-015
lhumerus -31.9302 14.71 79.1869
lradius 26.0907
lwrist -28.762
lhand -10.4029 19.8061
lfingers 7.12502
lthumb 15.5956 49.1974
rfemur -31.6305 -7.40572 20.7804
rtibia 59.2092
rfoot -6.06563 -19.014
rtoes 5.03598
lfemur -6.90345 -2.20157 -20.8491
ltibia 16.0909
lfoot -9.87138 1.39627
ltoes -0.538807
150
root 10.9617 17.9352 5.73217 72.4171 -88.1538 -66.878
lowerback -0.273252 -0.86424 -0.336675
upperback -0.782129 -1.16048 2.21754
thorax -0.595166 -0.579509 2.46423
lowerneck -11.4685 -4.6529 -5.6795
upperneck 23.5834 -6.22507 1.80902
head 9.57401 -3.37052 0.822134
rclavicle 6.16232e-015 3.97569e-015
rhumerus -28.8249 -25.2759 -63.8983
rradius 18.7417
rwrist 21.3325
rhand -16.5241 -27.9118
rfingers 7.12502
rthumb 9.69452 -57.6687
lclavicle 6.16232e-015 3.97569e-015
lhumerus -32.2143 15.369 78.4038
lradius 25.9134
lwrist -28.8009
lhand -10.4103 19.9922
lfingers 7.12502
lthumb 15.5886 49.384
rfemur -32.2722 -7.49029 20.6417
rtibia 57.8461
rfoot -6.58048 -19.2751
rtoes 4.95147
lfemur -6.4335 -2.22215 -21.0137
ltibia 15.9622
lfoot -10.1116 1.27938
ltoes -0.724698
151
root 10.8309 17.9337 5.73151 63.7615 -88.1409 -58.1436
lowerback -0.220907 -0.932576 -0.45381
upperback -0.785321 -1.25119 2.24515
thorax -0.620616 -0.623925 2.55962
lowerneck -11.4081 -4.70412 -5.73794
upperneck 23.4286 -6.28966 1.85702
head 9.51461 -3.39796 0.843751
rclavicle -1.80646e-014 4.37326e-015
rhumerus -30.3087 -28.2744 -61.7172
rradius 17.7405
rwrist 23.0125
rhand -16.6795 -28.655
rfingers 7.12502
rthumb 9.5446 -58.4189
lclavicle -1.80646e-014 4.37326e-015
lhumerus -32.5159 15.9864 77.6241
lradius 25.7541
lwrist -28.805
lhand -10.5017 20.1166
lfingers 7.12502
lthumb 15.5005 49.5152
rfemur -32.8647 -7.56833 20.4986
rtibia 56.3651
rfoot -7.02875 -19.5288
rtoes 4.90803
lfemur -5.9871 -2.24912 -21.1738
ltibia 15.8525
lfoot -10.3458 1.18533
ltoes -0.944065
152
root 10.7006 17.9313 5.73026 55.4073 -88.0874 -49.6977
lowerback -0.187336 -0.999088 -0.570135
upperback -0.779057 -1.33985 2.27313
thorax -0.625517 -0.667518 2.65455
lowerneck -11.3587 -4.75717 -5.79681
upperneck 23.2754 -6.35593 1.90573
head 9.45821 -3.42593 0.865189
rclavicle -1.27471e-014 1.51076e-014
rhumerus -32.0014 -31.2814 -59.2896
rradius 16.8455
rwrist 24.9259
rhand -16.7718 -29.4191
rfingers 7.12502
rthumb 9.45551 -59.187
lclavicle -1.27471e-014 1.51076e-014
lhumerus -32.8112 16.5751 76.8605
lradius 25.6174
lwrist -28.7845
lhand -10.6452 20.2349
lfingers 7.12502
lthumb 15.3623 49.6442
rfemur -33.4086 -7.63712 20.3455
rtibia 54.7628
rfoot -7.41586 -19.7713
rtoes 4.97247
lfemur -5.56472 -2.28679 -21.3353
ltibia 15.76
lfoot -10.5727 1.11384
ltoes -1.23696
153
root 10.5708 17.9282 5.72817 47.532 -87.9897 -41.7214
lowerback -0.158635 -1.06596 -0.686204
upperback -0.769265 -1.42915 2.30195
thorax -0.623587 -0.711525 2.75014
lowerneck -11.3162 -4.81204 -5.8525
upperneck 23.1302 -6.42437 1.95034
head 9.40594 -3.4551 0.884162
rclavicle 2.16178e-015 1.86858e-014
rhumerus -33.9274 -34.214 -56.6219
rradius 16.0619
rwrist 26.9968
rhand -16.8215 -30.1662
rfingers 7.12502
rthumb 9.40754 -59.9362
lclavicle 2.16178e-015 1.86858e-014
lhumerus -33.0983 17.1579 76.1047
lradius 25.4828
lwrist -28.7816
lhand -10.8502 20.3524
lfingers 7.12502
lthumb 15.1648 49.7767
rfemur -33.8952 -7.69803 20.1839
rtibia 53.0375
rfoot -7.72926 -20.0033
rtoes 5.1421
lfemur -5.16331 -2.343 -21.4934
ltibia 15.6858
lfoot -10.7951 1.05366
ltoes -1.56422
154
root 10.441 17.9243 5.72547 40.6131 -87.8618 -34.6936
lowerback -0.141033 -1.13218 -0.800602
upperback -0.745898 -1.51788 2.33357
thorax -0.601075 -0.755574 2.84725
lowerneck -11.3141 -4.86783 -5.91045
upperneck 23.0036 -6.49011 1.99038
head 9.36781 -3.48319 0.90102
rclavicle 1.19519e-014 2.78299e-015
rhumerus -36.0658 -36.9933 -53.7514
rradius 15.3958
rwrist 29.1439
rhand -16.8297 -30.8812
rfingers 7.12502
rthumb 9.39967 -60.6517
lclavicle 1.19519e-014 2.78299e-015
lhumerus -33.3614 17.7416 75.3668
lradius 25.3518
lwrist -28.7912
lhand -11.1082 20.4959
lfingers 7.12502
lthumb 14.9163 49.9388
rfemur -34.3242 -7.7397 20.0122
rtibia 51.1929
rfoot -7.96108 -20.2266
rtoes 5.40163
lfemur -4.7763 -2.42037 -21.6491
ltibia 15.6228
lfoot -11.0117 1.01052
ltoes -1.94214
